#!OML:ASF E:\acrobat2\Project_11_07_03\Capture day 1\Session 1\Acrobat.ASF
:FULLY-SPECIFIED
:DEGREES
2687
root 11.1529 4.15172 10.6304 -82.5439 2.91446 168.791
lowerback -11.303499108347797 -1.148481485160304 -5.744832604340527
upperback -10.439860910318712 -9.321250960428166 12.345728960547063
thorax -4.335261844981928 -6.534163791396732 9.068055882779904
lowerneck -6.798155247557859 -18.154672726033965 14.940066446380824
upperneck -31.7638566709287 -23.577470784366135 -0.4945528439259562
head -10.094115368781916 -7.129848313929752 -1.7666674833449512
rclavicle 2.38542e-15 -1.58034e-14
rhumerus -25.196351623316655 -4.680855900333512 24.431130077298448
rradius 52.44027856803404
rwrist -27.59071586825336
rhand -26.41122528684133 -37.31929589426783
rfingers 6.010259355783292
rthumb 7.591395037039432 -69.28623918086221
lclavicle 2.38542e-15 -1.58034e-14
lhumerus 2.479460279801297 44.81805529280423 -1.2411176219664437
lradius 55.003245845797025
lwrist 28.895270135623743
lhand -12.908164810895299 -28.35832544658076
lfingers 9.98583526425863
lthumb 8.247148405355974 -5.238050318431264
rfemur 4.156352856379897 6.6008556213402905 -3.345343057666594
rtibia -0.4862579196990131
rfoot 18.13593196428888 -13.810911329013306
rtoes 25.086168974650775
lfemur -4.827869184022082 -12.792850735276245 0.5639432067893301
ltibia 5.012344924159784
lfoot 51.72286981034446 -0.6615178000449453
ltoes 4.47688
2688
root 11.1529 4.15172 10.6304 -82.5439 2.91446 168.791
lowerback -11.284547485462385 -1.1392185978326481 -5.648188720989899
upperback -10.474585418966502 -9.41548218877779 12.323915457252472
thorax -4.356400879815494 -6.4358925567829575 9.128218331676546
lowerneck -6.852609867462256 -18.154055911361088 14.970029322149085
upperneck -31.852397026086035 -23.5974940879784 -0.41340441572121817
head -10.035716662591664 -7.132469402630786 -1.7439394904616343
rclavicle 2.38542e-15 -1.58034e-14
rhumerus -25.712033850291498 -5.0117664869741665 25.523605192895953
rradius 55.05968439330652
rwrist -27.614182183737647
rhand -26.427610090327644 -37.29145307821819
rfingers 6.067329743561325
rthumb 7.646029045800019 -69.24263192447391
lclavicle 2.38542e-15 -1.58034e-14
lhumerus 2.8053073789356855 44.53902915325268 3.05783984641263
lradius 57.064246394746775
lwrist 28.9216510327893
lhand -13.001828373451863 -28.320344910036056
lfingers 10.025960090839765
lthumb 8.178402298664324 -5.1539051850214355
rfemur 3.7533020631443543 6.695672321897094 -3.061845307988859
rtibia 4.377781694574415
rfoot 18.32945211790686 -13.9872833375723
rtoes 25.25322448582606
lfemur -4.91020260600081 -12.33981237936402 0.36792873207708454
ltibia 4.310679471036986
lfoot 51.65573536567051 -0.8406019675902877
ltoes 4.47688
2689
root 11.1529 4.15172 10.6304 -82.5439 2.91446 168.791
lowerback -11.270538409076758 -1.1925318580500908 -5.7477664707802845
upperback -10.534347041153072 -9.425809843922016 12.369622678601635
thorax -4.384378058724158 -6.356596072211188 9.154256065212085
lowerneck -6.948079373741021 -18.21155209955192 14.906368241986362
upperneck -31.890947046887003 -23.59364797025435 -0.33608928300358665
head -10.053291227077343 -7.215551490074767 -1.6943302993715645
rclavicle 2.38542e-15 -1.58034e-14
rhumerus -23.385719521583596 -4.357907826752093 20.64703677987135
rradius 53.520705795308814
rwrist -27.53455233427735
rhand -26.50725176097991 -37.219698810018585
rfingers 6.052856425086602
rthumb 7.651070133038796 -69.33100278486104
lclavicle 2.38542e-15 -1.58034e-14
lhumerus 1.8828731972894754 49.530874295621416 -1.8084429027173048
lradius 56.22400242038479
lwrist 28.88968515571451
lhand -12.911729830707138 -28.411023817413433
lfingers 9.978769328207521
lthumb 8.224649300343453 -5.112749282036703
rfemur 3.302478074599061 6.690148381288925 -2.963343592147214
rtibia 2.5341014925510135
rfoot 18.429870494149093 -13.906094327190225
rtoes 25.399068627916133
lfemur -4.79414777216551 -12.593479365068163 0.2718946757855384
ltibia 2.0048843319835754
lfoot 51.739188409770264 -1.0336750452255024
ltoes 4.47688
2690
root 11.1529 4.15172 10.6304 -82.5439 2.91446 168.791
lowerback -11.172449981531072 -1.269239410265561 -5.755286791084759
upperback -10.446990153333035 -9.488547717470448 12.327427848010002
thorax -4.330070478536268 -6.448581729080932 9.10642053114896
lowerneck -6.906129048653857 -18.262115319450075 14.965429671709222
upperneck -31.946014425793084 -23.554617824966755 -0.25447560823594606
head -10.134245819595957 -7.179027040211818 -1.673970309188463
rclavicle 2.38542e-15 -1.58034e-14
rhumerus -25.561209423975267 -1.2792287521678976 19.528074930679296
rradius 52.89791071165135
rwrist -27.577577543379405
rhand -26.44729904406534 -37.18942481701394
rfingers 5.964156175295688
rthumb 7.74037340220012 -69.28054359634855
lclavicle 2.38542e-15 -1.58034e-14
lhumerus 4.645578683968886 46.08642302568695 1.7933480441288907
lradius 55.88395736390006
lwrist 28.964488978071262
lhand -12.852503123463597 -28.473880011953668
lfingers 10.077093422997313
lthumb 8.186733474901702 -5.185455006956888
rfemur 2.9997501920553695 6.2391552057617625 -3.11676731219498
rtibia 5.267590084530003
rfoot 18.2289373504442 -13.84697211841881
rtoes 25.842879312436136
lfemur -5.250078760409277 -12.98061845713161 0.09153978099595728
ltibia 6.767685601488118
lfoot 51.64966835826377 -1.2973377429590716
ltoes 4.47688
2691
root 11.1529 4.15172 10.6304 -82.5439 2.91446 168.791
lowerback -11.209564622258638 -1.2547927345624503 -5.793070217574995
upperback -10.41209751249953 -9.453591643894717 12.421920637466865
thorax -4.271140366295281 -6.43037498672558 9.114425145979206
lowerneck -6.853091643639963 -18.251524602093312 14.964348378932005
upperneck -31.942804932459094 -23.556352333266716 -0.24549071928250235
head -10.126223592985793 -7.151308708627319 -1.5766508932676493
rclavicle 2.38542e-15 -1.58034e-14
rhumerus -28.378569556552762 2.4224532385052306 20.002899639642834
rradius 52.123661638062494
rwrist -27.48238309091404
rhand -26.512651088701258 -37.15817746080121
rfingers 5.902730663109709
rthumb 7.838866354444159 -69.26839143623107
lclavicle 2.38542e-15 -1.58034e-14
lhumerus 6.382751330429864 43.630562572285186 -2.0649250617740567
lradius 54.27450530241536
lwrist 28.940278263548446
lhand -12.911427279968285 -28.402706089411137
lfingers 10.021921288551635
lthumb 8.154293564361254 -5.132300730928658
rfemur 3.0700729431202602 5.99925216254789 -3.0964173376479076
rtibia 6.741443462542909
rfoot 18.58853962395845 -13.837949350801463
rtoes 26.047856636988556
lfemur -4.980575041345694 -12.623517958468602 -0.0206440959598142
ltibia 5.368078839782435
lfoot 51.946811329345834 -1.2884919647117412
ltoes 4.47688
2692
root 11.1529 4.15172 10.6304 -82.5439 2.91446 168.791
lowerback -11.130880022389018 -1.2447818867538636 -5.754270305616768
upperback -10.506293562259783 -9.449272673612885 12.399631693105393
thorax -4.346715858862773 -6.4930145807851805 9.110571880151058
lowerneck -6.90444516010147 -18.26758470092959 15.015955661739046
upperneck -31.975738563684637 -23.573518350929177 -0.2652959521028428
head -10.158523698486048 -7.154990549603319 -1.5755026344037062
rclavicle 2.38542e-15 -1.58034e-14
rhumerus -25.761440412670943 -1.4087675426682593 18.813673808517706
rradius 52.77408616710556
rwrist -27.537556384530703
rhand -26.48317730133842 -37.18734292726841
rfingers 5.840222129722529
rthumb 7.771370843913104 -69.23777040555473
lclavicle 2.38542e-15 -1.58034e-14
lhumerus 8.391669920908534 47.41345740341733 -0.7443253792447768
lradius 53.337538819719974
lwrist 28.894326618945794
lhand -12.968680788701121 -28.463807084081488
lfingers 9.981391374186975
lthumb 8.226872594904556 -5.172004170404204
rfemur 3.478379900650443 6.06955323934759 -2.6723642096375255
rtibia 3.637319661977441
rfoot 19.04463323663144 -13.476045622015155
rtoes 26.36662635596334
lfemur -4.560696320761133 -12.736431875545293 -0.37702242485285997
ltibia 0.9125050193925288
lfoot 52.10066436998047 -1.366608442920358
ltoes 4.47688
2693
root 11.1529 4.15172 10.6304 -82.5439 2.91446 168.791
lowerback -11.195182987959635 -1.1664804824173056 -5.7779220130090225
upperback -10.577141785596227 -9.452752940201881 12.476407531888139
thorax -4.33442513142527 -6.405693934080298 9.102559600902
lowerneck -7.000159560986781 -18.291421666235028 14.942726147024217
upperneck -31.912701066126914 -23.55992982748163 -0.346511089291221
head -10.247014200400136 -7.0954254686094655 -1.5622531393084225
rclavicle 2.38542e-15 -1.58034e-14
rhumerus -27.09558191239907 -5.234818289248105 16.032811013239787
rradius 53.96757344545605
rwrist -27.442264188185437
rhand -26.463805743515337 -37.26123953504488
rfingers 5.767823675146142
rthumb 7.850370672358955 -69.27256176120635
lclavicle 2.38542e-15 -1.58034e-14
lhumerus 9.107897206330168 48.36720698980907 -1.6072874997350564
lradius 56.0722920044789
lwrist 28.918109773937836
lhand -12.920160774120506 -28.533392779330548
lfingers 10.080306468560678
lthumb 8.227672384530573 -5.166362666331559
rfemur 2.987934240269453 5.634769507276035 -3.1164116383192204
rtibia 8.622390483590411
rfoot 19.284043298458926 -13.746849760079192
rtoes 26.040842671003887
lfemur -4.806483654117245 -12.5811140332123 -0.7509458003076197
ltibia -0.04846452923889988
lfoot 52.566200372658535 -1.5338176256054568
ltoes 4.47688
